# xmcd
#
# Track frame offsets:
# 182
# 16427
# 31740
# 46242
# 61890
# 75647
# 89230
# 106032
# 120557
# 132642
# 146422
# 162085
# 177817
# 194200
#
# Disc length: 2810 seconds
#
#
# Revision: 1
# Processed by: cddbd v1.5.2PL0 Copyright (c) Steve Scherf et al.
# Submitted via: FreeRIP 2.945 
#
DISCID=bb0af80e
DTITLE=Moncho - El Bolero
DYEAR=1995
DGENRE=Bolero
TTITLE0=Historia de un amor
TTITLE1=El reloj
TTITLE2=Amar y vivir
TTITLE3=Nosotros
TTITLE4=No puedo ser feliz
TTITLE5=Toda una vida
TTITLE6=Como a ti te gusta
TTITLE7=Encadenados
TTITLE8=No me vayas a engañar
TTITLE9=Cuando vuelva a tu lado
TTITLE10=Miénteme
TTITLE11=Lo que te daría
TTITLE12=Nuestra edad es la distancia
TTITLE13=La Barca
EXTD=
EXTT0=
EXTT1=
EXTT2=
EXTT3=
EXTT4=
EXTT5=
EXTT6=
EXTT7=
EXTT8=
EXTT9=
EXTT10=
EXTT11=
EXTT12=
EXTT13=
PLAYORDER=
